<?xml version="1.0" standalone="no"?>
<!DOCTYPE svg PUBLIC "-//W3C//DTD SVG 20010904//EN"
 "http://www.w3.org/TR/2001/REC-SVG-20010904/DTD/svg10.dtd">
<svg version="1.0" xmlns="http://www.w3.org/2000/svg"
 width="1024.000000pt" height="1024.000000pt" viewBox="0 0 1024.000000 1024.000000"
 preserveAspectRatio="xMidYMid meet">
<metadata>
Created by potrace 1.16, written by Peter Selinger 2001-2019
</metadata>
<g transform="translate(0.000000,1024.000000) scale(0.100000,-0.100000)"
fill="#000000" stroke="none">
<path d="M0 8280 l0 -1960 40 0 c22 0 40 -4 40 -10 0 -6 33 -10 80 -10 79 0
80 0 80 25 0 23 4 25 40 25 29 0 40 4 40 15 0 11 11 15 43 15 36 0 48 -6 82
-40 37 -36 44 -39 98 -40 32 0 102 5 154 12 75 9 98 9 101 0 2 -8 31 -12 83
-12 64 0 79 -3 79 -15 0 -20 13 -19 33 3 22 24 21 30 -5 35 -13 3 4 3 36 1 37
-3 64 1 74 8 8 7 24 17 36 23 11 6 27 22 33 37 7 14 20 31 28 38 13 11 15 8
15 -19 0 -17 5 -31 11 -31 6 0 9 6 6 14 -3 8 -9 30 -12 50 -6 31 -5 35 14 33
12 -1 21 -5 21 -9 0 -21 20 -4 34 30 l16 37 -6 -35 c-8 -42 -87 -214 -103
-224 -6 -4 -11 -22 -11 -41 0 -19 -9 -58 -19 -87 -11 -29 -25 -82 -32 -118 -7
-38 -24 -83 -40 -109 -32 -50 -36 -73 -14 -91 8 -7 20 -30 25 -51 9 -32 15
-39 35 -39 18 0 23 -4 19 -15 -4 -8 -15 -15 -25 -15 -23 0 -26 -35 -5 -43 12
-5 15 -26 14 -94 0 -48 2 -101 6 -118 3 -16 9 -97 12 -180 3 -82 7 -168 10
-190 5 -38 12 -111 17 -182 1 -17 5 -35 10 -39 4 -4 7 -20 7 -34 0 -15 7 -45
16 -66 11 -27 15 -58 12 -104 -2 -36 4 -139 14 -230 10 -91 18 -216 19 -278 1
-100 -1 -115 -17 -127 -18 -13 -18 -14 -1 -32 21 -24 22 -40 2 -59 -9 -10 -12
-25 -8 -45 5 -24 1 -33 -17 -46 -17 -12 -21 -22 -16 -44 5 -24 1 -31 -24 -44
-18 -9 -32 -26 -35 -43 -8 -35 -9 -36 -78 -118 -176 -208 -286 -438 -342 -721
-20 -99 -26 -116 -54 -142 -34 -32 -40 -65 -14 -80 16 -8 15 -14 -15 -54 -18
-25 -35 -59 -38 -76 -6 -29 -20 -48 -36 -50 -5 -1 -17 -1 -28 -1 -11 0 -34
-13 -51 -28 -27 -24 -32 -35 -31 -73 0 -28 -6 -51 -18 -64 -33 -38 -92 -137
-95 -161 -1 -13 -8 -30 -15 -39 -10 -12 -9 -23 4 -55 9 -22 16 -52 16 -66 0
-13 7 -27 15 -30 8 -4 15 -14 15 -23 0 -25 -82 -255 -119 -334 -17 -37 -47
-110 -66 -164 -20 -53 -42 -104 -49 -113 -7 -8 -25 -40 -41 -70 -15 -30 -35
-71 -45 -90 -20 -39 -40 -126 -40 -170 0 -17 -5 -30 -11 -30 -5 0 -7 -5 -3
-11 3 -6 7 -72 9 -147 3 -183 12 -241 39 -253 16 -6 11 -7 -19 -4 l-40 5 45
-14 c36 -11 40 -14 20 -16 -18 -2 -20 -4 -8 -7 10 -2 18 -11 18 -18 0 -9 6
-12 16 -8 12 4 15 1 12 -13 -2 -10 -9 -18 -16 -17 -6 2 -9 -4 -6 -12 4 -8 12
-15 19 -15 23 0 28 -20 9 -41 -9 -10 -14 -22 -10 -26 4 -4 11 -1 16 7 5 8 12
11 17 7 4 -5 3 -11 -2 -15 -6 -4 -17 -16 -25 -26 -14 -18 -13 -18 10 -11 24 7
24 6 -8 -27 -17 -19 -32 -40 -31 -48 0 -10 4 -8 10 5 9 18 59 50 59 38 0 -2
-18 -22 -40 -44 -28 -28 -48 -39 -70 -39 l-30 0 0 -105 0 -105 5121 0 5120 0
-2 170 -3 170 -58 -1 c-32 -1 -58 -6 -58 -10 0 -21 -41 -6 -69 24 -18 18 -31
26 -31 18 0 -8 8 -20 17 -27 10 -7 15 -15 12 -18 -11 -11 -40 6 -49 28 -8 19
-9 19 -9 -6 -1 -16 -3 -28 -6 -28 -11 0 -50 25 -62 40 -11 13 -14 13 -23 0 -8
-13 -13 -13 -30 -2 -11 7 -25 10 -30 7 -16 -10 -12 -33 7 -44 10 -6 13 -11 8
-11 -6 0 -21 7 -33 16 -19 13 -21 19 -11 30 10 12 9 18 -6 32 -15 15 -17 15
-12 1 8 -24 -9 -44 -39 -46 -15 -1 -31 -8 -35 -15 -4 -7 -11 -9 -15 -5 -4 3
-2 13 4 20 18 22 1 29 -21 10 -15 -13 -21 -15 -24 -5 -5 14 -43 16 -43 2 0 -5
-5 -10 -11 -10 -6 0 -8 9 -3 22 6 21 6 21 -11 5 -14 -14 -15 -20 -5 -32 10
-12 10 -15 -2 -15 -17 0 -41 25 -53 55 -8 19 -8 19 -13 1 -2 -10 1 -22 6 -25
6 -4 7 -12 3 -20 -6 -9 -10 -6 -15 13 -3 14 -11 26 -16 26 -14 0 -12 -28 3
-33 6 -2 8 -8 4 -13 -4 -5 -12 -2 -17 6 -8 13 -13 12 -39 -3 -37 -21 -49 -22
-47 0 1 18 -41 35 -59 23 -5 -3 -28 -12 -49 -19 -34 -12 -40 -11 -48 3 -13 24
-38 20 -39 -6 -1 -17 -2 -19 -6 -5 -3 12 -15 17 -43 17 -21 0 -42 5 -46 12 -5
7 -11 5 -21 -8 -17 -23 -32 -5 -26 30 4 17 -1 25 -16 29 -13 3 -19 1 -15 -5 5
-7 -2 -9 -20 -6 -31 6 -35 -7 -4 -15 12 -4 25 -1 29 4 4 8 9 7 14 -1 13 -22
-10 -31 -53 -22 -23 5 -43 7 -47 4 -9 -9 -5 -20 8 -19 39 1 57 -5 57 -18 0
-12 -4 -13 -19 -5 -11 5 -31 10 -45 10 -16 0 -26 6 -26 15 0 22 -17 18 -23 -5
-3 -13 -10 -18 -21 -14 -9 3 -27 -1 -41 -10 -22 -14 -25 -15 -25 -1 0 8 9 15
21 15 11 0 17 5 14 10 -9 15 -19 12 -43 -10 -12 -12 -22 -17 -22 -12 0 5 -14
9 -31 9 -17 0 -34 5 -39 13 -10 17 -30 4 -30 -20 0 -10 -5 -22 -10 -25 -5 -3
-10 1 -10 10 0 13 -8 15 -37 11 -30 -4 -33 -4 -13 3 l25 9 -26 1 c-14 1 -34
-6 -45 -14 -10 -8 -23 -14 -29 -15 -5 0 -4 4 4 9 8 5 16 20 18 32 3 21 2 22
-9 7 -10 -14 -20 -16 -49 -9 -19 4 -51 8 -70 7 -41 -1 -71 20 -48 35 12 7 11
9 -2 9 -27 0 -42 -25 -24 -40 8 -7 15 -17 15 -23 0 -7 -4 -7 -12 1 -13 13 -52
17 -45 5 3 -5 -9 -9 -26 -9 -18 -1 -25 0 -15 3 25 6 32 35 12 50 -10 7 -20 10
-23 7 -3 -4 0 -9 7 -11 40 -15 -31 -56 -86 -50 l-37 4 41 1 c29 1 44 7 48 18
4 9 4 19 1 22 -7 7 -60 5 -108 -3 -32 -6 -36 -5 -31 9 4 11 1 16 -10 16 -9 0
-16 -7 -16 -15 0 -8 -7 -15 -15 -15 -8 0 -15 -7 -15 -15 0 -8 -5 -15 -10 -15
-6 0 -9 5 -8 11 2 6 -3 14 -9 16 -7 3 -13 -3 -14 -14 -1 -13 -3 -11 -8 6 -5
18 -14 25 -34 25 -16 1 -31 -2 -33 -6 -3 -4 0 -8 5 -8 6 0 11 -5 11 -11 0 -6
-9 -9 -20 -6 -10 3 -27 -1 -37 -9 -23 -17 -34 -18 -28 -1 7 16 -30 38 -50 31
-21 -8 -19 -41 3 -47 9 -3 5 -4 -10 -4 -18 1 -30 9 -37 24 -9 19 -19 23 -52
23 -50 0 -48 -6 7 -19 l39 -10 -45 2 c-38 2 -45 5 -48 25 -4 27 -32 30 -32 2
0 -24 -13 -26 -30 -5 -14 17 -14 17 15 33 19 11 19 11 -2 12 -17 0 -24 -8 -30
-30 -10 -36 -26 -40 -33 -8 -6 25 -35 32 -35 8 0 -19 -17 -39 -28 -33 -4 3 -5
14 -2 26 5 18 4 19 -4 7 -10 -13 -12 -13 -22 0 -8 12 -9 11 -4 -7 9 -32 -12
-37 -23 -6 -9 25 -10 26 -11 6 -1 -23 -31 -34 -31 -12 0 6 -9 9 -20 6 -10 -3
-20 -1 -22 3 -4 12 -120 21 -137 11 -10 -6 -9 -10 4 -15 9 -3 21 -4 26 0 12 7
49 -5 49 -16 0 -13 -42 -51 -49 -44 -3 3 2 10 12 15 9 6 17 14 17 19 0 13 -87
13 -95 0 -11 -18 -26 -10 -23 13 2 15 9 21 21 19 9 -2 17 2 17 9 0 11 -18 10
-102 -7 -16 -3 -28 -10 -28 -15 0 -5 -7 -9 -15 -9 -8 0 -15 5 -15 11 0 5 -5 7
-11 3 -6 -3 -15 0 -20 7 -8 12 -11 12 -19 -1 -9 -13 -12 -13 -23 1 -14 19 -38
14 -30 -7 6 -15 -13 -19 -42 -8 -12 5 -13 9 -5 14 8 5 7 9 -4 13 -12 5 -16 0
-16 -18 0 -26 -14 -34 -24 -12 -5 10 -7 10 -12 0 -10 -22 -24 -14 -24 12 0 28
-25 44 -43 26 -6 -6 -19 -11 -29 -11 -20 0 -25 -16 -6 -22 12 -4 3 -28 -11
-28 -11 0 -7 46 6 62 12 14 8 28 -8 28 -5 0 -6 -6 -3 -14 3 -8 -3 -16 -16 -19
-17 -4 -20 -11 -15 -26 5 -16 2 -21 -12 -21 -20 1 -57 26 -59 40 -1 6 -2 17
-3 25 -2 26 -21 17 -21 -10 0 -14 -5 -25 -11 -25 -5 0 -7 -5 -4 -10 10 -16
-11 -12 -25 5 -16 19 -70 20 -70 1 0 -9 7 -12 18 -9 10 2 24 -3 31 -11 11 -13
9 -15 -18 -13 -20 1 -33 9 -37 19 -7 22 -51 35 -67 19 -8 -8 -5 -11 13 -11 16
0 21 -3 14 -10 -14 -14 -114 18 -114 37 0 16 -16 17 -26 1 -4 -6 -2 -14 4 -16
17 -5 15 -22 -3 -22 -8 0 -15 7 -15 15 0 18 -16 20 -26 4 -4 -8 -12 -2 -21 16
l-15 27 -14 -27 c-8 -15 -14 -35 -14 -44 0 -11 -6 -7 -18 12 -15 25 -21 27
-60 21 -34 -5 -47 -2 -64 12 -20 18 -21 18 -15 1 4 -10 7 -21 7 -23 0 -2 7 -4
15 -4 8 0 15 -5 15 -11 0 -11 -38 -3 -53 10 -4 4 -29 2 -54 -4 -48 -12 -83
-10 -83 6 0 5 5 9 10 9 6 0 10 5 10 12 0 9 -3 9 -12 0 -14 -14 -50 -16 -63 -3
-15 13 -75 22 -75 11 0 -6 8 -10 19 -10 10 0 24 -7 31 -15 15 -18 -1 -20 -18
-3 -8 8 -15 8 -26 -1 -11 -10 -16 -9 -24 5 -5 9 -14 14 -20 10 -17 -10 -3 -34
21 -39 19 -4 19 -4 -3 -6 -29 -1 -51 15 -44 34 4 9 -3 11 -20 8 -14 -3 -26 -9
-26 -14 0 -5 -5 -9 -10 -9 -6 0 -8 11 -4 27 6 22 4 25 -10 20 -9 -4 -16 -2
-16 3 0 6 -4 10 -8 10 -4 0 -8 -10 -7 -22 0 -35 -19 -36 -26 -2 -4 22 -8 25
-13 13 -5 -11 -15 -14 -32 -11 -14 2 -24 0 -24 -7 0 -6 7 -11 15 -11 8 0 15
-7 15 -16 0 -12 -5 -14 -17 -9 -10 4 -28 10 -40 12 -13 3 -23 10 -23 15 0 5
-7 2 -16 -6 -22 -22 -37 -20 -31 4 7 26 -5 26 -21 0 -15 -24 -32 -26 -32 -4 0
14 -2 14 -16 3 -14 -11 -18 -11 -29 4 -10 14 -14 15 -18 5 -4 -10 -8 -9 -18 4
-17 21 -69 35 -69 19 0 -6 5 -11 11 -11 5 0 7 -4 4 -10 -11 -18 -25 -10 -25
15 0 17 -5 25 -17 25 -11 0 -14 -3 -8 -8 13 -9 16 -72 4 -72 -5 0 -10 15 -10
33 -2 31 -2 31 -9 -8 -7 -37 -7 -38 -10 -10 -1 17 -1 40 0 52 1 17 -3 20 -20
16 -11 -3 -23 -10 -27 -16 -4 -6 2 -8 14 -5 16 4 20 0 20 -23 0 -24 -3 -27
-14 -17 -11 9 -16 9 -23 -2 -5 -8 -13 -11 -17 -6 -4 5 -2 11 5 13 17 6 15 23
-2 23 -8 0 -17 -9 -21 -19 -3 -11 -13 -22 -21 -25 -23 -9 -64 4 -64 20 0 8 -7
14 -16 14 -14 0 -14 -3 -4 -15 7 -9 11 -18 8 -20 -7 -7 -48 30 -48 44 0 6 -4
11 -10 11 -13 0 -13 -12 0 -44 6 -17 6 -26 0 -26 -6 0 -10 9 -10 20 0 17 -4
19 -27 14 -38 -9 -45 -14 -40 -27 4 -12 -16 -37 -29 -37 -5 0 -3 5 4 12 19 19
14 25 -25 31 -42 7 -66 -2 -37 -15 12 -5 6 -6 -16 -2 -19 4 -40 10 -46 15 -6
5 -20 6 -30 3 -16 -6 -17 -5 -6 7 6 7 12 20 11 28 0 11 -2 12 -6 4 -7 -18 -20
-16 -44 8 -11 11 -24 18 -27 14 -4 -3 0 -10 7 -14 7 -5 9 -11 5 -14 -15 -8
-94 -5 -100 5 -9 14 -24 -2 -24 -27 0 -25 -24 -40 -45 -27 -10 5 -11 12 -5 22
8 13 10 12 10 -2 0 -10 5 -18 10 -18 12 0 13 20 0 40 -7 12 -12 11 -30 -5 -22
-20 -22 -20 -46 10 -18 23 -24 26 -24 13 0 -10 4 -18 9 -18 5 0 11 -9 14 -20
4 -17 2 -18 -16 -9 -12 7 -29 18 -38 25 -14 12 -21 12 -52 -1 -49 -20 -77 -19
-77 3 0 22 -19 42 -38 42 -11 0 -12 -3 -3 -14 8 -9 8 -16 2 -20 -11 -7 -34 28
-24 38 3 3 1 6 -5 6 -7 0 -12 -4 -12 -10 0 -5 -19 -10 -42 -10 -24 0 -49 -7
-59 -16 -11 -10 -19 -12 -24 -5 -3 6 -1 11 4 11 20 0 11 18 -11 24 -14 3 -27
0 -33 -7 -5 -7 -18 -16 -27 -20 -11 -4 -15 -12 -12 -22 4 -9 1 -15 -9 -15 -10
0 -13 7 -10 19 3 13 -2 20 -19 24 -34 10 -38 9 -38 -8 0 -8 -6 -15 -14 -15
-20 0 -29 17 -15 26 12 7 -7 24 -29 24 -14 0 -12 -21 3 -32 5 -4 7 -10 3 -13
-9 -9 -59 45 -53 56 4 5 1 9 -4 9 -16 0 -13 -26 4 -44 17 -17 20 -36 5 -36 -5
0 -10 6 -10 14 0 17 -39 25 -68 15 -12 -5 -22 -4 -22 0 0 5 -18 7 -40 4 -26
-4 -40 -2 -40 6 0 6 -5 11 -10 11 -11 0 8 -40 25 -52 6 -4 -12 -6 -39 -4 -31
2 -54 10 -61 20 -7 10 -19 14 -29 10 -10 -4 -16 -1 -16 9 0 19 -27 30 -36 15
-4 -7 -3 -8 4 -4 14 8 16 -13 4 -31 -6 -10 -14 -9 -35 2 -27 14 -28 13 -22 -5
8 -24 7 -24 -39 -5 -20 9 -42 13 -48 9 -5 -4 -14 0 -19 7 -4 7 -11 10 -15 7
-8 -9 23 -41 34 -34 5 3 21 -4 38 -16 16 -11 20 -17 9 -13 -11 4 -39 12 -63
18 -24 6 -48 19 -53 29 -14 26 -29 22 -29 -7 0 -28 -15 -33 -28 -9 -6 11 -25
15 -73 16 -38 0 -70 6 -79 14 -10 8 -21 10 -30 4 -11 -7 -9 -11 12 -19 41 -15
59 -61 24 -61 -6 0 -5 4 2 9 10 6 4 12 -20 21 -18 7 -39 20 -47 29 -12 14 -13
13 -8 -6 6 -26 -9 -41 -25 -25 -6 6 -17 8 -25 5 -13 -5 -15 1 -11 30 5 46 -8
49 -20 5 l-8 -33 -19 23 c-24 27 -35 28 -35 2 0 -17 -7 -20 -43 -20 -24 0 -49
-6 -55 -12 -10 -10 -14 -10 -21 0 -4 7 -15 10 -24 6 -17 -6 -21 5 -19 51 0 11
-2 14 -4 8 -3 -7 -12 -13 -20 -13 -17 0 -19 -17 -2 -23 7 -3 -10 -6 -39 -6
-28 -1 -55 4 -58 9 -3 6 -15 10 -26 10 -10 0 -19 5 -19 11 0 5 -5 7 -11 3 -8
-4 -4 -13 12 -25 13 -10 21 -20 18 -23 -7 -8 -49 5 -49 15 0 14 -26 10 -40 -6
-18 -21 -29 -19 -41 9 -12 26 -52 39 -68 23 -8 -8 -11 -6 -11 6 0 9 6 17 14
17 7 0 19 6 25 14 10 12 7 15 -15 18 -49 5 -40 27 13 30 26 2 47 6 46 11 -5
14 32 43 50 39 12 -3 17 2 17 19 0 29 65 65 99 54 15 -4 21 -2 21 8 0 9 -3 17
-8 20 -4 2 -1 2 6 1 6 -2 12 1 12 7 0 7 10 9 24 5 14 -3 28 -1 31 4 4 6 11 8
16 5 5 -3 6 1 3 9 -5 12 1 16 25 16 17 0 31 5 31 11 0 6 7 9 15 5 8 -3 15 -1
15 4 0 10 56 40 79 41 10 0 12 2 3 6 -17 7 -5 23 19 23 11 0 22 6 25 14 3 8
19 18 34 21 18 4 27 11 24 19 -3 7 2 19 11 26 8 7 15 21 15 31 0 11 4 19 10
19 5 0 7 7 4 15 -3 8 0 27 8 42 7 16 15 70 16 123 4 116 -12 169 -66 216 l-37
33 23 16 c19 14 22 25 22 83 0 69 -21 208 -39 253 -13 35 -63 76 -110 90 -39
12 -208 8 -248 -6 -22 -7 -23 -5 -23 48 0 30 -7 74 -15 98 -28 79 -169 321
-248 428 -107 143 -121 194 -68 245 24 23 29 34 24 57 -4 20 -1 29 7 29 10 0
10 3 0 15 -6 8 -9 19 -5 25 10 17 -3 57 -21 64 -8 3 -25 1 -36 -5 -11 -6 -21
-9 -23 -7 -2 2 7 27 20 55 19 38 29 86 40 194 9 79 23 187 31 239 21 141 23
155 41 278 13 96 18 112 34 112 28 0 32 17 7 34 -27 19 -18 32 11 14 17 -10
25 -10 39 0 9 6 36 22 60 34 23 12 42 25 42 29 0 4 15 12 32 19 22 7 42 26 60
56 40 66 81 172 75 196 -6 22 2 38 46 102 15 21 27 47 27 58 0 10 7 21 15 24
8 4 15 13 15 21 0 11 -7 13 -25 9 -34 -9 -31 0 6 20 28 14 30 19 25 49 -4 20
-2 36 5 40 6 4 10 26 8 49 -3 59 -1 66 16 66 15 0 19 13 15 64 -1 21 5 35 22
47 18 14 21 20 11 30 -18 18 -16 66 2 73 25 9 17 26 -14 32 l-30 6 29 32 c24
25 29 37 24 62 -4 21 -1 34 10 43 19 16 20 44 5 73 -9 17 -8 24 6 34 22 17 22
59 0 84 -17 19 -17 20 9 30 34 13 44 37 21 54 -12 8 -15 18 -10 27 5 7 11 41
14 76 l6 63 75 -50 c41 -27 119 -68 173 -91 53 -23 97 -45 97 -50 0 -5 -9 -66
-21 -136 -18 -112 -20 -151 -14 -313 5 -164 4 -198 -14 -285 -22 -109 -25
-178 -17 -360 l5 -120 71 -7 c39 -3 81 -9 94 -12 21 -5 24 -2 30 36 4 24 11
202 17 398 5 195 14 414 18 485 5 72 6 212 3 311 -4 151 -2 190 11 232 10 31
19 100 22 183 6 165 23 349 40 449 10 57 11 85 3 116 -10 35 -7 63 15 175 14
74 29 168 33 209 3 41 9 79 11 83 3 5 16 -10 30 -32 13 -23 21 -46 17 -53 -4
-7 -3 -8 4 -4 7 4 22 -14 38 -46 15 -29 81 -138 147 -243 66 -104 140 -224
165 -265 24 -41 59 -95 77 -120 61 -84 215 -340 266 -443 56 -111 120 -211
153 -239 26 -21 79 -44 133 -58 37 -9 46 -17 62 -53 54 -123 224 -725 321
-1142 23 -99 55 -234 72 -300 55 -221 133 -551 179 -755 16 -74 15 -73 110
-41 60 20 91 26 102 19 10 -5 17 -5 17 0 0 12 42 30 58 24 10 -3 7 -11 -9 -28
-12 -13 -26 -24 -30 -24 -13 0 -169 -126 -229 -185 -30 -29 -71 -79 -90 -111
-43 -71 -48 -133 -26 -292 9 -62 16 -137 16 -167 0 -48 -2 -55 -20 -55 -16 0
-20 -7 -20 -35 0 -47 25 -105 44 -105 24 0 19 -15 -14 -47 -16 -15 -30 -35
-30 -43 0 -9 -14 -32 -30 -52 -36 -44 -69 -114 -70 -147 0 -29 20 -101 33
-118 6 -9 6 -13 -1 -13 -5 0 -12 7 -16 15 -12 31 -49 19 -236 -81 -14 -7 -41
-27 -60 -44 -18 -16 -38 -30 -42 -30 -5 0 -7 -4 -3 -9 3 -5 -8 -19 -25 -31
-16 -12 -30 -27 -30 -35 0 -7 -7 -15 -15 -19 -8 -3 -15 -11 -15 -18 0 -7 -6
-24 -13 -38 -19 -36 -29 -91 -18 -104 4 -6 14 -28 21 -49 6 -20 16 -35 21 -32
5 4 9 0 9 -7 0 -27 72 -77 129 -89 31 -7 60 -19 64 -26 4 -7 16 -13 25 -13 16
-1 55 -24 52 -32 -4 -11 15 -38 27 -38 10 0 13 -6 9 -17 -4 -10 -4 -14 0 -11
9 10 54 -42 54 -63 0 -11 7 -19 15 -19 8 0 13 -6 11 -12 -1 -7 -1 -10 1 -5 3
4 22 7 44 7 26 0 42 5 45 15 4 8 10 15 16 15 5 0 7 -4 4 -9 -9 -14 39 -22 66
-12 19 8 20 10 4 10 -15 1 -16 4 -6 16 7 8 21 15 32 15 14 0 18 5 13 19 -3 12
0 21 10 25 8 3 15 15 15 26 0 11 6 20 13 20 7 0 26 18 43 41 16 22 34 46 41
53 7 8 10 16 7 18 -6 6 46 41 64 44 8 2 21 9 30 17 25 22 87 36 180 39 62 2
86 7 93 18 4 8 9 11 9 5 0 -10 258 -10 267 -1 3 2 19 -2 37 -9 17 -7 74 -17
127 -20 81 -6 97 -5 108 9 7 9 28 16 45 16 18 0 37 5 44 12 7 7 37 12 70 12
31 -1 49 2 39 5 -10 4 20 7 65 8 46 0 214 4 373 7 174 4 308 2 335 -4 25 -5
70 -14 101 -19 55 -9 87 -26 176 -91 23 -16 47 -30 53 -30 5 0 10 -6 10 -14 0
-17 44 -33 118 -42 44 -6 52 -4 52 10 0 9 8 16 19 16 11 0 26 9 34 20 10 14
20 18 32 14 12 -5 16 -4 12 3 -4 6 5 14 20 18 18 4 23 9 15 14 -10 6 -9 11 3
21 8 7 15 18 15 25 0 8 4 15 10 17 5 1 11 12 13 23 1 11 5 25 9 30 3 6 9 31
13 55 3 25 13 85 22 133 20 112 14 162 -23 191 -15 11 -36 29 -46 39 -17 16
-18 16 -18 0 0 -14 -2 -15 -9 -4 -5 7 -14 10 -20 7 -6 -4 -11 -2 -11 5 0 8 -4
8 -15 -1 -19 -15 -19 -13 0 40 20 58 19 109 -6 174 l-20 55 20 40 c12 22 21
45 21 50 0 9 94 168 172 291 46 73 50 86 30 102 -13 11 -15 11 -8 -2 4 -8 1
-7 -8 4 -14 18 -40 18 -743 10 -400 -5 -903 -8 -1117 -7 -379 1 -389 2 -409
22 -17 16 -19 25 -12 45 10 26 231 254 425 439 83 79 110 111 102 119 -8 8
-28 -4 -74 -45 -54 -47 -300 -299 -434 -443 -19 -22 -31 -30 -25 -19 14 27
394 423 456 475 l51 43 94 2 c52 1 118 7 145 13 46 11 151 32 270 54 28 5 78
13 112 17 57 6 98 21 60 21 -19 0 -31 50 -30 130 0 37 -2 48 -8 35 -6 -16 -8
-14 -8 12 -1 18 -10 78 -21 135 -15 80 -50 319 -50 344 0 2 4 4 10 4 12 0 36
-84 51 -185 7 -44 27 -154 44 -245 18 -92 28 -169 23 -175 -13 -14 -10 -31 4
-17 17 17 47 15 54 -3 4 -8 11 -12 17 -8 6 3 7 1 3 -5 -4 -7 -19 -13 -34 -13
-18 -1 -21 -3 -9 -6 10 -3 29 -2 41 1 19 5 22 11 18 36 -4 25 -1 30 17 30 11
0 21 6 21 13 0 8 11 19 25 25 28 13 34 -1 8 -18 -16 -10 -15 -11 5 -7 15 4 20
1 15 -6 -4 -7 -6 -20 -5 -29 3 -15 -4 -18 -35 -19 -21 0 -32 -3 -25 -6 7 -3
66 3 131 12 l118 18 -5 51 c-2 28 -10 65 -17 81 -18 42 -42 123 -50 168 -6 36
-45 299 -45 305 0 1 9 2 19 2 25 0 25 -1 56 -225 14 -104 29 -192 32 -195 3
-3 3 18 -1 45 -13 100 -35 281 -39 328 -4 43 -3 47 18 47 27 0 30 -14 51 -245
8 -82 16 -166 20 -187 5 -31 3 -37 -15 -43 -12 -3 -21 -11 -21 -16 0 -6 8 -5
21 1 25 14 26 14 34 -31 6 -30 3 -37 -17 -47 -21 -11 -20 -11 12 -6 19 4 41
11 48 17 10 8 16 7 23 -4 7 -12 9 -11 9 3 0 11 -10 18 -27 21 l-28 4 28 2 c15
0 27 7 27 14 0 9 10 12 30 9 36 -5 38 -15 8 -31 -22 -11 -22 -11 5 -8 30 5 39
-18 10 -26 -16 -4 -16 -5 -1 -6 9 0 62 10 118 23 76 18 116 34 154 60 51 35
182 160 196 187 4 8 4 46 -1 84 -4 39 -8 130 -8 203 l-1 132 -27 -6 c-16 -4
-80 -24 -143 -45 -119 -40 -150 -46 -150 -29 0 6 11 10 24 10 13 0 57 11 97
24 41 14 102 32 137 42 l62 17 0 183 0 183 -117 0 c-153 -2 -165 -1 -159 10 3
5 33 8 67 6 l61 -2 -31 19 c-44 28 -38 32 10 7 31 -17 61 -22 137 -24 53 -2
81 -1 62 2 -27 3 -38 11 -48 31 -9 21 -36 39 -112 75 -56 26 -109 47 -118 47
-9 0 -37 10 -62 21 -27 12 -122 32 -235 49 -104 16 -224 36 -265 44 -41 8 -93
17 -115 20 -93 12 -371 57 -380 61 -32 12 74 1 235 -25 102 -17 254 -42 338
-55 157 -26 263 -33 134 -10 -39 8 -82 17 -94 21 -12 4 -40 8 -63 9 -52 3
-108 13 -138 24 -14 6 -27 8 -30 5 -2 -3 -26 0 -52 6 -53 12 -83 16 -170 26
-37 4 -65 13 -73 23 -10 13 -14 13 -21 2 -6 -10 -21 -11 -60 -6 -28 4 -54 11
-57 16 -6 11 -24 2 -24 -12 0 -5 12 -10 28 -10 20 -1 22 -3 6 -6 -21 -4 -364
44 -372 52 -9 9 30 5 113 -9 91 -16 228 -29 205 -20 -8 4 -30 13 -48 22 -26
11 -36 12 -41 3 -6 -9 -15 -9 -37 -1 -16 6 -60 14 -99 17 -38 3 -72 5 -75 6
-3 0 -15 -3 -28 -7 -30 -10 -497 65 -479 77 7 5 3 6 -11 2 -19 -6 -244 18
-288 30 -7 2 -15 26 -19 54 -8 59 -62 177 -96 208 -13 12 -51 34 -84 49 -62
28 -145 89 -145 106 0 6 9 0 21 -13 l20 -24 -6 25 c-4 15 -3 20 2 13 5 -7 14
-9 23 -3 14 9 67 -9 176 -59 85 -40 118 -85 164 -229 35 -105 58 -147 75 -131
10 10 -64 223 -93 269 -41 64 -56 74 -177 129 -60 27 -111 54 -113 60 -2 7 3
9 15 4 14 -5 13 -1 -7 22 -14 16 -19 25 -11 20 9 -5 12 -3 9 5 -2 8 -13 18
-24 24 -10 6 -34 22 -53 35 -49 35 -173 102 -179 96 -2 -2 7 -10 22 -16 32
-15 33 -22 1 -43 -34 -23 -41 -21 -140 30 l-88 45 -86 -5 c-47 -3 -96 -8 -109
-12 -29 -8 -30 14 -2 44 30 32 63 37 154 22 98 -15 145 -20 129 -13 -20 7 -16
26 17 74 34 52 32 73 -15 139 -18 25 -46 77 -63 115 -16 39 -66 147 -110 240
-43 94 -98 222 -121 285 -23 63 -72 185 -108 270 -36 85 -70 166 -76 180 -6
14 -10 28 -9 31 0 3 -30 37 -69 75 -70 69 -83 99 -58 134 8 11 9 7 4 -16 -5
-24 -2 -33 10 -38 9 -3 21 -4 26 -1 5 4 6 -1 3 -9 -8 -21 6 -20 23 2 12 15 12
13 2 -10 -10 -22 -15 -25 -26 -17 -9 9 -13 8 -13 0 0 -11 13 -15 39 -11 9 1
12 -5 9 -17 -3 -12 4 -25 19 -36 12 -10 23 -13 23 -7 0 5 5 10 11 10 8 0 8 -5
-1 -15 -10 -12 -9 -16 4 -21 10 -4 15 -13 12 -20 -3 -8 0 -14 6 -14 6 0 8 11
4 31 l-6 31 19 -23 c11 -13 15 -25 10 -27 -5 -2 -9 -9 -9 -17 0 -9 20 -13 72
-13 41 -1 74 -5 76 -11 2 -6 21 -11 43 -11 28 0 39 -4 39 -15 0 -23 13 -18 45
15 21 22 31 27 37 18 6 -11 11 -10 25 0 31 22 47 26 51 14 3 -9 36 -10 123 -5
107 5 119 4 119 -10 0 -22 13 -21 33 1 21 23 21 30 0 34 -11 3 -5 6 15 9 25 4
32 2 32 -11 0 -15 27 -17 277 -23 182 -4 279 -9 281 -16 5 -14 162 -15 162 -1
0 6 33 10 80 10 47 0 80 -4 80 -10 0 -5 18 -10 40 -10 22 0 40 5 40 10 0 6 18
10 40 10 22 0 40 -4 40 -9 0 -5 72 -12 160 -16 88 -4 160 -11 160 -16 0 -5
-19 -10 -42 -10 l-43 -2 50 -7 c74 -12 195 -12 195 0 0 18 21 10 46 -17 17
-19 27 -24 31 -15 6 14 83 17 83 2 0 -5 18 -10 40 -10 22 0 40 5 40 10 0 15
77 12 83 -2 4 -9 14 -4 31 15 28 30 46 35 46 12 0 -13 17 -14 120 -8 103 5
120 4 120 -9 0 -18 76 -28 221 -28 59 0 99 -4 99 -10 0 -5 11 -10 25 -10 14 0
25 5 25 10 0 6 25 10 55 10 30 0 55 -4 55 -10 0 -6 43 -10 110 -10 67 0 110
-4 110 -10 0 -6 50 -10 130 -10 109 0 130 -2 130 -15 0 -11 11 -15 40 -15 31
0 40 4 40 17 0 13 8 9 33 -15 18 -18 36 -32 40 -32 4 0 7 14 7 32 l0 32 30
-29 c16 -16 30 -35 30 -42 0 -7 5 -13 10 -13 6 0 10 5 10 10 0 6 27 10 61 10
33 0 103 5 155 12 52 6 97 8 102 3 4 -4 1 -10 -6 -12 -29 -11 -8 -23 38 -23
28 0 50 5 50 10 0 13 77 13 82 0 5 -16 310 -18 316 -2 6 19 22 14 44 -13 22
-28 38 -32 38 -10 0 11 11 15 40 15 27 0 40 -4 40 -14 0 -11 44 -15 233 -20
127 -4 273 -10 322 -15 l90 -8 -122 -1 c-74 -1 -123 -6 -123 -12 0 -6 47 -10
120 -10 l120 0 0 -30 0 -30 80 0 c47 0 80 -4 80 -10 0 -6 33 -10 80 -10 l80 0
0 2010 0 2010 -5120 0 -5120 0 0 -1960z m3182 90 c87 -23 200 -60 231 -77 51
-27 8 -28 -76 -2 -107 32 -142 40 -128 26 19 -19 12 -36 -35 -83 -26 -25 -43
-48 -40 -51 12 -12 46 -10 57 4 6 7 20 13 31 13 16 0 19 5 16 25 -3 14 -4 25
-3 25 2 0 22 -29 45 -65 24 -36 50 -70 59 -75 14 -7 13 -12 -9 -35 -14 -15
-30 -23 -39 -20 -9 3 -12 3 -9 -1 4 -3 -4 -21 -17 -39 -14 -17 -25 -37 -25
-43 0 -7 -4 -12 -10 -12 -5 0 -9 10 -7 23 1 16 -3 22 -16 21 -14 -2 -15 1 -6
13 10 11 14 11 20 1 11 -18 34 5 26 26 -5 13 -11 14 -32 4 -14 -6 -25 -15 -25
-20 0 -4 -8 -8 -17 -8 -15 0 -16 2 -3 10 12 8 9 10 -12 10 -16 0 -28 5 -28 10
0 6 -6 10 -14 10 -8 0 -18 4 -21 10 -4 7 3 7 20 0 40 -15 82 -12 125 10 50 25
52 35 4 15 -31 -13 -39 -13 -64 0 -37 19 -80 71 -80 98 -1 22 -1 21 -20 -3
-44 -54 -50 -65 -50 -78 0 -33 -43 42 -45 79 -2 45 6 53 55 56 39 1 146 39
156 54 6 11 -64 79 -80 79 -6 -1 7 -16 28 -34 l39 -34 -30 -15 c-16 -9 -61
-20 -99 -26 -67 -9 -70 -9 -91 15 -27 30 -29 62 -5 80 26 20 48 18 27 -2 -17
-18 -16 -35 4 -42 9 -3 11 2 6 17 -9 29 0 26 48 -14 54 -46 61 -36 11 16 l-39
41 36 -5 c20 -2 43 -1 50 4 8 5 19 7 26 4 6 -2 31 -9 55 -15z m-278 -188 c-5
-14 -4 -14 4 -2 9 12 14 12 37 0 32 -17 88 -105 90 -143 1 -15 0 -25 -3 -22
-3 3 -18 -17 -34 -45 -28 -49 -59 -75 -80 -68 -7 3 -18 20 -25 39 l-13 34 4
-36 c4 -31 1 -38 -20 -48 -19 -9 -24 -8 -24 4 0 8 5 15 11 15 16 0 6 43 -11
48 -13 5 -13 3 -1 -12 8 -9 11 -19 9 -22 -10 -9 -39 28 -45 57 -6 30 -29 56
-40 45 -3 -3 1 -14 10 -24 10 -10 17 -25 17 -34 0 -8 9 -23 20 -33 23 -21 27
-55 5 -55 -8 0 -15 5 -15 11 0 5 -4 8 -9 5 -4 -3 -29 14 -54 39 -60 58 -84 70
-103 54 -26 -21 -14 3 19 40 18 20 40 35 49 33 9 -2 19 5 23 17 8 27 32 27 40
1 4 -11 11 -18 16 -15 14 9 11 36 -7 56 -14 16 -11 20 53 51 73 36 85 37 77
10z m610 -105 c4 4 4 0 1 -9 -4 -9 0 -19 7 -24 7 -4 10 -4 6 1 -8 8 8 45 20
45 11 0 42 -55 42 -73 0 -21 -50 -29 -51 -8 0 12 -2 11 -8 -4 -5 -11 -6 -24
-3 -29 3 -5 0 -6 -6 -2 -7 4 -12 1 -13 -6 0 -7 -4 -4 -9 7 -5 11 -9 14 -9 8
-1 -7 -8 -13 -16 -13 -8 0 -15 -5 -15 -11 0 -5 -5 -7 -10 -4 -6 4 -22 -1 -36
-10 -14 -9 -29 -14 -32 -10 -4 3 0 10 8 15 13 8 8 14 -11 12 -3 -1 -6 5 -6 13
0 8 3 12 7 10 3 -2 14 5 23 16 9 10 14 19 10 19 -3 0 4 11 17 25 13 14 29 25
37 25 7 0 13 5 13 11 0 8 4 9 13 0 8 -6 17 -8 21 -4z m-940 -153 c9 -3 13 -10
10 -15 -3 -5 2 -6 11 -3 23 9 95 -16 95 -33 0 -7 5 -13 11 -13 5 0 7 6 4 13
-4 6 1 3 10 -8 15 -19 17 -19 30 -2 12 17 14 17 31 0 9 -10 28 -42 42 -72 23
-51 24 -58 13 -119 -24 -128 -77 -188 -159 -178 -56 7 -100 31 -115 63 -10 23
-8 28 16 49 31 26 57 33 38 10 -9 -11 -5 -16 20 -25 18 -6 42 -11 55 -11 13 0
26 -5 30 -12 4 -7 3 -8 -4 -4 -7 4 -12 2 -12 -4 0 -6 -10 -8 -22 -5 -13 3 -34
7 -48 9 -14 2 -33 8 -44 12 -27 10 -17 -15 15 -39 70 -51 153 -23 194 66 31
65 31 108 1 172 -22 49 -56 89 -56 67 0 -6 -7 -9 -15 -6 -8 4 -23 0 -32 -7
-15 -12 -16 -12 -10 4 3 9 2 17 -3 17 -6 0 -10 -4 -10 -8 0 -12 -77 -14 -85
-2 -3 6 -11 8 -16 4 -11 -6 -69 14 -69 24 0 6 51 62 56 62 1 0 9 -3 18 -6z
m-1239 -1965 c44 0 79 -6 94 -16 13 -8 20 -10 17 -4 -4 7 1 11 13 11 11 0 24
-6 28 -13 4 -7 24 -19 43 -27 45 -18 132 -71 127 -77 -3 -2 -51 8 -108 22
-135 35 -190 45 -264 47 -38 1 -65 7 -75 17 -13 13 -13 14 3 8 16 -6 74 9 66
17 -2 3 -28 0 -58 -6 -29 -5 -60 -7 -69 -3 -30 11 28 34 73 29 22 -2 72 -5
110 -5z m-5 -144 c41 -9 87 -18 102 -22 16 -3 34 0 43 7 9 7 18 10 22 7 3 -4
12 -2 20 5 23 19 24 3 2 -26 -12 -15 -20 -29 -18 -30 11 -10 115 -56 126 -56
8 0 17 9 21 21 7 19 9 19 21 5 8 -9 20 -16 27 -16 17 0 18 -26 2 -34 -7 -3 -1
-3 14 0 19 4 39 -1 65 -17 34 -22 36 -24 16 -27 -13 -2 -23 -8 -23 -13 0 -16
-163 20 -258 57 -89 35 -251 120 -252 132 0 6 -8 12 -17 12 -16 0 -16 -2 -3
-11 13 -9 13 -10 0 -6 -8 2 -17 12 -18 21 -3 13 1 17 15 12 10 -3 52 -12 93
-21z m1026 -286 l103 -72 -6 -128 -6 -128 31 -18 31 -18 -25 -20 c-22 -18 -24
-24 -15 -48 6 -15 17 -27 26 -27 8 0 15 -9 15 -20 0 -13 -7 -20 -19 -20 -11 0
-23 -5 -26 -11 -12 -19 5 -60 30 -69 26 -10 35 -40 11 -40 -17 0 -28 -27 -21
-51 4 -12 16 -19 30 -19 18 0 25 6 28 28 4 25 4 25 6 -5 1 -26 -4 -35 -28 -47
-16 -9 -31 -23 -35 -31 -7 -19 8 -51 26 -59 9 -4 6 -10 -9 -22 -28 -20 -29
-40 -3 -56 24 -15 26 -44 5 -64 -23 -23 -20 -96 5 -117 24 -20 26 -40 5 -57
-8 -7 -15 -19 -15 -27 0 -12 3 -13 13 -4 8 6 17 8 20 4 13 -12 7 -54 -8 -59
-8 -3 -17 -14 -20 -24 -7 -23 12 -73 25 -65 5 3 10 2 10 -3 0 -6 -11 -13 -25
-16 -34 -9 -48 -44 -29 -73 19 -30 18 -33 -9 -33 -13 0 -28 -5 -35 -12 -15
-15 -16 -50 -1 -65 18 -18 1 -33 -31 -26 -23 4 -30 2 -30 -10 0 -9 9 -21 20
-27 23 -12 27 -32 5 -24 -9 4 -19 -3 -26 -20 -10 -20 -9 -30 5 -51 12 -18 13
-25 4 -25 -7 0 -26 -14 -42 -30 -27 -30 -28 -31 -11 -50 16 -18 16 -20 2 -20
-9 0 -20 8 -26 18 -11 19 -8 20 -81 -35 -54 -41 -76 -43 -32 -4 28 26 32 36
32 78 0 26 -7 73 -15 103 -27 99 -10 447 26 536 23 57 47 604 31 691 -10 51
-34 271 -45 421 -5 65 -10 66 129 -29z m269 -177 c55 -30 53 -23 40 -143 -7
-63 -7 -66 19 -82 14 -10 26 -24 26 -33 0 -12 -4 -11 -22 5 -28 27 -42 17 -35
-25 3 -20 0 -49 -8 -69 -14 -32 -13 -35 10 -63 30 -36 31 -39 4 -61 -15 -12
-23 -32 -27 -69 -3 -41 -8 -52 -22 -52 -33 0 -42 24 -24 64 15 30 16 42 6 74
-7 22 -12 49 -12 61 0 15 -6 21 -24 21 -13 0 -30 7 -37 16 -12 15 -11 16 11 9
14 -4 31 -10 38 -12 8 -4 12 5 12 24 0 43 -20 93 -36 93 -8 0 -14 10 -14 22
l0 21 25 -23 25 -23 0 25 c0 14 -7 31 -15 38 -11 9 -12 17 -5 30 15 27 12 61
-5 80 -18 20 -11 100 9 100 6 0 34 -13 61 -28z m1965 -362 c14 -11 35 -20 47
-20 29 0 87 -75 109 -142 9 -28 22 -62 30 -76 7 -14 12 -28 9 -30 -11 -11 -43
12 -58 42 -8 19 -36 57 -61 85 l-46 51 6 -32 c4 -18 21 -57 40 -85 19 -29 34
-54 34 -57 0 -2 -11 -6 -24 -8 -22 -5 -26 1 -46 66 -31 104 -62 190 -72 201
-10 11 -11 25 0 25 4 0 18 -9 32 -20z m173 -64 c62 -26 176 -177 177 -233 0
-6 6 -14 13 -16 23 -10 -21 -7 -71 4 -54 11 -54 11 -98 128 -13 35 -34 79 -45
98 -23 37 -22 39 24 19z m257 -31 c0 -13 16 -50 35 -82 19 -31 44 -82 57 -113
12 -30 27 -59 32 -63 13 -9 -58 2 -91 14 -15 5 -26 22 -33 51 -6 24 -15 57
-19 74 -5 17 -5 38 0 45 14 22 11 27 -18 37 l-28 10 28 7 c23 6 28 12 24 31
-2 13 0 21 4 18 5 -3 9 -16 9 -29z m106 -23 c30 -16 70 -63 92 -107 22 -44 54
-156 47 -163 -2 -3 -24 1 -49 8 -36 10 -47 18 -56 44 -37 98 -53 135 -74 166
-13 19 -27 45 -30 57 -6 20 -5 21 22 14 16 -5 38 -13 48 -19z m-364 -246 c7 6
51 -20 88 -52 49 -43 162 -95 232 -108 l37 -7 -25 58 c-13 32 -31 70 -40 86
-17 31 -9 35 43 17 25 -9 33 -20 48 -71 10 -33 18 -66 18 -75 0 -8 10 -17 21
-19 24 -6 180 -23 183 -21 1 1 -6 20 -17 42 -11 21 -22 55 -25 74 -5 29 -2 26
15 -18 12 -28 30 -57 41 -63 12 -6 18 -16 15 -24 -3 -8 6 -14 25 -17 25 -4 29
-1 29 19 0 14 4 21 10 18 6 -3 10 -15 10 -26 0 -16 7 -19 43 -19 40 1 41 1 22
17 -18 14 -18 15 -2 9 10 -3 26 -6 34 -6 13 0 13 -3 3 -15 -10 -12 -8 -16 15
-25 39 -15 78 -13 72 3 -6 15 9 45 17 36 3 -3 7 -15 9 -27 4 -28 4 -29 60 -34
41 -5 47 -3 47 13 0 11 5 19 10 19 6 0 10 -9 10 -20 0 -26 20 -33 150 -55 184
-31 170 -31 170 -1 0 14 4 26 10 26 5 0 7 -13 4 -28 -6 -28 -4 -29 52 -40 72
-15 74 -15 74 2 0 8 4 17 9 20 4 3 6 -6 3 -19 -2 -14 0 -25 4 -25 5 0 70 -11
144 -25 154 -28 153 -28 146 -16 -4 5 -2 20 3 33 9 21 10 19 10 -14 1 -48 24
-51 39 -5 l10 32 1 -32 c1 -19 6 -33 14 -33 6 0 24 -7 40 -14 15 -8 27 -10 27
-5 0 5 -7 12 -15 15 -8 4 -15 16 -14 28 0 20 1 20 9 1 8 -17 9 -15 7 10 -1 22
-7 30 -22 31 -18 1 -208 30 -246 38 -11 2 -14 -4 -11 -25 3 -17 0 -29 -7 -29
-6 0 -11 13 -11 28 0 35 -24 44 -170 66 -247 37 -374 57 -382 62 -4 3 -24 7
-45 9 -21 3 -58 10 -83 15 -25 6 -88 16 -140 23 l-95 13 -3 33 c-3 32 -3 33
30 26 42 -9 48 -13 48 -30 0 -16 33 -30 38 -16 2 7 10 6 23 -2 17 -10 22 -9
32 8 11 19 11 19 17 -5 5 -22 13 -26 65 -32 33 -3 110 -15 170 -26 61 -11 169
-29 240 -41 72 -11 154 -25 184 -31 74 -14 79 -13 84 13 4 20 4 20 6 -4 1 -23
6 -26 79 -38 42 -8 107 -19 143 -27 37 -7 95 -16 131 -20 l64 -6 12 33 11 34
-6 -37 c-4 -28 -2 -38 8 -38 8 -1 33 -5 56 -9 23 -4 42 -5 41 -2 -2 24 3 61
10 61 4 0 6 -15 4 -33 l-4 -34 85 -16 c115 -23 115 -23 120 16 4 31 4 31 5 -5
1 -25 7 -38 16 -38 7 0 27 -3 44 -6 29 -6 31 -4 40 37 l10 44 1 -47 c1 -48 1
-48 35 -48 18 0 48 -3 65 -6 30 -6 31 -5 32 27 1 19 3 25 6 14 2 -11 6 -30 9
-43 2 -13 8 -21 12 -19 4 3 16 1 27 -4 35 -14 -33 -10 -100 5 -33 8 -93 18
-133 22 l-73 7 3 -39 c2 -32 7 -40 26 -42 16 -2 22 2 23 15 1 12 3 10 8 -7 7
-25 8 -24 15 8 10 40 26 42 26 2 0 -34 20 -41 21 -7 1 17 3 15 10 -10 12 -40
39 -34 39 8 0 45 28 37 32 -8 4 -45 20 -49 29 -7 l7 29 1 -32 c1 -42 21 -43
21 -1 0 36 7 35 12 -2 2 -14 7 -31 11 -37 5 -7 7 -13 5 -13 -2 0 -55 9 -118
20 -63 11 -162 27 -220 35 -169 23 -308 45 -353 54 -23 6 -116 22 -207 36 -91
15 -192 33 -225 42 -33 8 -80 19 -105 23 -25 4 -126 24 -225 43 -99 20 -241
43 -315 52 -74 10 -173 26 -220 37 -47 10 -159 25 -250 33 -91 8 -183 19 -205
26 -60 17 -300 162 -310 187 -3 8 3 7 19 -3 12 -8 25 -12 28 -9z m-18 -109 c3
-30 17 -89 31 -133 14 -43 36 -126 49 -184 24 -104 99 -400 131 -515 30 -105
30 -107 9 -103 -11 2 -20 13 -22 28 -6 37 -148 612 -177 710 -28 96 -55 221
-55 252 0 43 27 -2 34 -55z m70 16 c25 -15 50 -39 55 -53 6 -14 46 -173 90
-355 44 -181 92 -372 106 -422 14 -51 25 -97 25 -103 0 -5 -20 -10 -44 -10
l-44 0 -7 48 c-8 51 -181 745 -214 855 -11 37 -18 67 -16 67 2 0 24 -12 49
-27z m121 -73 c58 -40 59 -43 160 -510 23 -103 62 -257 85 -332 9 -28 8 -28
-33 -28 l-43 0 -11 53 c-11 53 -185 756 -202 815 -5 17 -7 32 -4 32 2 0 24
-13 48 -30z m102 -65 c37 -98 124 -414 147 -536 14 -74 34 -164 45 -201 l20
-68 -23 0 c-21 0 -26 11 -59 138 -20 75 -46 187 -57 247 -18 90 -85 372 -107
449 -10 36 19 11 34 -29z m165 -30 c15 -27 50 -72 79 -100 l52 -50 -23 38
c-39 66 -80 142 -80 150 0 4 8 7 18 7 12 0 23 -13 31 -37 8 -21 32 -76 54
-123 23 -47 43 -89 45 -95 3 -5 -13 6 -34 26 -36 33 -82 67 -170 126 -34 23
-64 69 -64 98 0 12 8 15 33 13 27 -3 36 -11 59 -53z m289 5 c24 -13 41 -54 85
-204 19 -66 42 -132 50 -148 19 -36 4 -37 -18 0 -21 34 -79 95 -85 89 -2 -3
24 -41 57 -85 58 -76 63 -87 91 -199 30 -123 35 -154 21 -137 -5 5 -14 37 -20
71 -17 86 -39 135 -59 131 -25 -5 -26 -22 -1 -33 24 -11 56 -90 57 -141 1 -25
-4 -33 -21 -37 -12 -4 -24 -5 -25 -3 -10 9 -43 145 -43 174 0 18 -11 59 -25
92 -21 49 -115 403 -115 432 0 11 27 10 51 -2z m105 -31 c3 -6 17 -54 29 -108
30 -128 60 -247 90 -351 29 -104 42 -190 27 -190 -13 0 -57 133 -73 220 -6 36
-18 82 -26 104 -16 45 -93 315 -93 327 0 13 38 11 46 -2z m111 -7 c6 -4 30
-81 52 -172 23 -91 48 -190 55 -220 18 -73 27 -120 21 -120 -17 0 -81 171
-150 405 -15 50 -32 96 -37 103 -8 9 -3 12 18 12 16 0 34 -4 41 -8z m130 -87
c42 -263 79 -442 119 -580 8 -24 -36 34 -66 89 -25 44 -75 223 -115 406 -15
68 -31 135 -36 148 -9 22 -7 23 38 20 l48 -3 12 -80z m109 59 c18 -5 24 -20
38 -102 26 -145 41 -221 80 -392 19 -85 33 -156 32 -158 -2 -2 -26 0 -54 4
l-50 6 -6 53 c-3 29 -22 137 -42 241 -20 104 -41 226 -48 272 -13 80 -12 82 8
82 12 0 30 -3 42 -6z m122 -29 c9 -8 62 -254 87 -399 14 -82 30 -157 35 -167
6 -10 10 -27 10 -38 0 -18 -6 -21 -40 -21 -22 0 -40 1 -40 3 0 24 -122 603
-131 618 -11 21 -10 22 32 15 24 -4 45 -9 47 -11z m-910 -150 c22 -77 46 -171
52 -210 13 -73 57 -225 85 -292 14 -32 18 -35 26 -21 6 12 -3 60 -32 165 -40
140 -46 188 -36 273 3 19 5 45 6 58 2 35 19 26 27 -15 4 -21 13 -47 20 -58 7
-11 24 -59 37 -106 14 -48 30 -95 35 -105 5 -11 20 -63 33 -116 20 -86 39
-121 56 -104 6 6 -54 210 -76 260 -39 86 -69 183 -61 196 14 23 29 1 51 -73
11 -40 28 -90 36 -112 9 -22 30 -92 48 -155 l32 -115 47 -3 c47 -3 54 3 37 36
-6 9 -21 67 -35 129 -14 62 -34 130 -45 151 -19 37 -19 38 0 38 26 0 44 -42
74 -172 23 -103 33 -136 49 -175 10 -23 -48 -29 -208 -21 l-129 7 -34 105
c-18 58 -43 150 -54 205 -12 55 -36 157 -55 226 -32 119 -40 158 -30 148 2 -2
22 -67 44 -144z m996 135 c30 -11 45 -58 76 -230 56 -323 58 -380 15 -380 -25
0 -32 19 -55 165 -6 37 -22 124 -37 194 -57 278 -57 273 1 251z m133 -28 c7
-4 17 -48 23 -97 6 -50 17 -126 25 -170 23 -124 47 -307 41 -312 -19 -19 -34
17 -55 133 -13 71 -38 202 -55 292 -32 160 -32 162 -12 162 12 0 26 -4 33 -8z
m81 -18 c12 -4 22 -14 22 -23 0 -9 9 -59 20 -111 19 -92 70 -389 70 -410 0 -7
-15 -10 -37 -8 l-37 3 -27 216 c-15 119 -32 234 -38 255 -13 45 -14 84 -3 84
4 0 17 -3 30 -6z m76 -14 c7 0 13 -6 14 -12 2 -24 21 -143 32 -193 5 -27 19
-102 30 -165 11 -63 22 -127 26 -142 5 -25 3 -28 -20 -28 -29 0 -26 -11 -56
175 -12 72 -33 181 -46 243 -28 134 -29 136 -8 128 9 -3 21 -6 28 -6z m98 -60
c4 -25 19 -130 34 -235 14 -104 28 -202 31 -217 5 -25 2 -28 -19 -28 -22 0
-26 6 -31 38 -3 20 -17 105 -31 187 -15 83 -31 180 -36 216 -5 36 -12 73 -15
81 -5 13 0 15 27 9 30 -6 34 -11 40 -51z m56 23 c9 -18 19 -85 48 -313 8 -69
18 -140 21 -157 4 -28 2 -33 -15 -33 -18 0 -21 11 -32 103 -7 56 -21 160 -31
231 -10 71 -19 142 -19 157 0 32 15 38 28 12z m88 -168 c12 -94 22 -154 23
-135 0 19 -6 94 -14 165 -8 72 -15 133 -15 137 0 3 9 4 20 1 24 -6 41 -80 70
-302 27 -207 27 -201 -13 -201 l-34 0 -2 72 c-3 97 -11 101 -11 5 0 -55 -4
-77 -12 -77 -9 0 -20 62 -37 213 -37 323 -36 299 -15 295 17 -3 22 -25 40
-173z m94 151 c0 -2 9 -48 20 -102 16 -78 60 -355 60 -379 0 -3 -11 -5 -25 -5
-14 0 -25 5 -25 10 0 9 -54 401 -64 458 -2 16 2 22 15 22 11 0 19 -2 19 -4z
m-1060 -108 c0 -9 11 -49 25 -89 13 -40 22 -75 20 -79 -2 -4 12 -47 31 -96 39
-96 65 -189 56 -198 -3 -3 -13 -6 -22 -6 -21 0 -45 97 -29 117 7 8 4 13 -10
18 -15 4 -23 23 -35 83 -9 42 -21 95 -27 116 -15 55 -29 133 -34 191 l-4 50
14 -45 c8 -25 15 -52 15 -62z m1109 93 c14 -9 24 -53 46 -211 8 -58 22 -138
31 -178 17 -77 16 -86 -8 -77 -14 6 -19 27 -67 290 -34 183 -34 196 -2 176z
m75 -10 c5 -8 53 -320 63 -413 5 -42 3 -48 -13 -48 -16 0 -22 12 -33 68 -17
91 -61 363 -61 385 0 18 34 25 44 8z m72 -9 c5 -4 18 -92 28 -197 9 -104 20
-205 23 -222 4 -29 2 -33 -16 -33 -25 0 -24 -2 -50 195 -35 266 -35 265 -14
265 10 0 23 -4 29 -8z m88 -56 c3 -22 13 -111 21 -196 9 -85 19 -165 22 -177
4 -20 1 -23 -24 -23 l-30 0 -21 183 c-12 100 -22 201 -22 223 0 38 2 41 25 37
20 -4 25 -12 29 -47z m74 -177 c13 -116 21 -214 18 -217 -3 -2 -11 -2 -19 1
-15 6 -20 32 -42 257 -18 181 -18 170 3 170 16 0 20 -23 40 -211z m47 133 c10
-120 26 -266 31 -309 6 -41 5 -43 -20 -43 -24 0 -26 3 -26 43 0 23 -9 113 -20
200 -11 86 -17 163 -14 171 3 8 13 12 24 9 15 -4 20 -18 25 -71z m58 0 c4 -32
9 -109 12 -172 3 -63 8 -130 11 -147 4 -28 2 -33 -16 -33 -17 0 -20 6 -20 43
0 23 -4 71 -9 107 -5 36 -12 111 -16 167 -6 97 -6 101 13 96 16 -4 21 -16 25
-61z m81 -30 c3 -43 9 -132 12 -199 l7 -123 -32 0 c-20 0 -30 4 -26 10 4 6 2
59 -4 118 -5 59 -13 146 -16 193 l-6 86 29 -5 c29 -4 30 -5 36 -80z m60 16 c3
-29 8 -117 12 -195 6 -138 6 -143 -13 -143 -19 0 -21 9 -27 123 -4 67 -9 155
-13 195 -5 68 -5 72 14 72 17 0 22 -8 27 -52z m63 34 c9 -6 15 -64 20 -190 l8
-182 -27 0 c-27 0 -28 2 -28 53 0 30 -3 115 -7 190 -6 142 -3 153 34 129z
m-2464 -489 c2 -16 21 -91 40 -168 106 -412 155 -631 143 -642 -12 -13 -23 13
-40 97 -35 173 -101 453 -146 615 -35 128 -34 125 -16 125 7 0 16 -12 19 -27z
m116 -5 c5 -18 15 -60 21 -93 6 -33 18 -82 26 -110 8 -27 28 -111 44 -185 16
-74 41 -175 55 -225 33 -119 32 -136 -6 -158 -18 -10 -33 -16 -35 -14 -2 2
-13 50 -24 108 -11 57 -29 136 -39 174 -10 39 -29 117 -41 175 -12 58 -34 148
-50 200 -48 161 -48 157 12 159 21 1 28 -5 37 -31z m102 -28 c10 -30 29 -109
44 -175 15 -66 47 -198 71 -293 53 -211 54 -218 13 -227 -17 -4 -33 -5 -35 -2
-7 7 -96 343 -113 430 -5 23 -23 103 -40 178 -17 75 -31 140 -31 143 0 4 17 6
37 4 36 -3 38 -5 54 -58z m48 31 c9 -15 46 -164 69 -271 5 -25 30 -125 56
-222 25 -97 46 -179 46 -182 0 -4 -10 -6 -22 -6 -25 0 -32 22 -138 465 -26
110 -51 210 -55 222 -6 18 -4 21 14 16 12 -3 26 -13 30 -22z m389 -20 c27
-115 64 -246 88 -313 16 -42 26 -79 23 -83 -4 -3 -18 -1 -32 6 -19 8 -30 27
-46 78 -25 80 -67 255 -76 316 -7 41 -6 43 14 38 14 -3 24 -17 29 -42z m1830
32 c5 -10 11 -117 13 -238 2 -131 8 -223 14 -227 6 -4 0 -8 -11 -8 -19 0 -23
8 -29 56 -10 85 -14 434 -4 434 4 0 12 -8 17 -17z m-2157 -14 c6 -12 39 -132
74 -268 97 -378 118 -450 135 -455 8 -2 1 -4 -17 -5 -30 -1 -33 2 -39 37 -3
20 -26 107 -50 192 -24 85 -53 201 -64 257 -11 56 -29 134 -40 175 -11 40 -20
76 -20 80 0 14 9 8 21 -13z m399 -122 c18 -73 44 -157 57 -187 28 -64 64 -188
70 -245 8 -70 -22 -21 -52 85 -15 52 -45 140 -66 196 -21 56 -45 141 -53 190
-19 108 -19 105 -2 98 8 -3 27 -58 46 -137z m22 129 c8 -7 40 -98 71 -202 32
-104 70 -228 85 -276 16 -51 23 -88 17 -88 -5 0 -4 -4 4 -9 7 -5 10 -14 7 -20
-13 -21 -23 -11 -20 20 2 17 0 27 -6 24 -12 -7 -28 23 -32 61 -2 16 -5 31 -8
34 -13 13 -132 376 -143 438 -7 34 3 41 25 18z m587 -84 c11 -48 34 -166 51
-262 17 -96 32 -183 34 -192 2 -10 -1 -18 -7 -18 -7 0 -24 54 -41 128 -15 70
-34 154 -42 187 -29 128 -51 245 -47 249 16 16 34 -16 52 -92z m200 46 c6 -29
15 -89 21 -133 6 -44 19 -133 28 -197 12 -77 14 -118 7 -118 -5 0 -4 -4 3 -9
10 -6 8 -10 -8 -14 -18 -5 -21 -2 -17 13 3 11 1 20 -3 22 -11 4 -100 420 -100
466 0 18 6 22 29 22 28 0 30 -3 40 -52z m41 42 c8 -5 20 -33 27 -62 l12 -53
-6 64 c-5 58 -4 63 13 59 16 -3 22 -24 41 -143 42 -261 55 -330 70 -378 8 -26
12 -54 9 -62 -3 -8 -1 -15 4 -15 6 0 10 -3 10 -7 0 -7 -38 -8 -82 -4 -22 2 -3
21 26 26 l34 7 -21 36 c-12 21 -25 39 -29 40 -5 2 -6 8 -2 13 3 5 1 9 -4 9
-10 0 -24 82 -43 248 -7 56 -14 100 -16 98 -3 -2 1 -55 7 -118 7 -62 15 -149
19 -193 6 -76 7 -80 29 -77 27 4 29 -14 2 -21 -36 -9 -59 57 -81 225 -10 83
-25 186 -34 230 -8 44 -15 82 -15 84 0 7 14 4 30 -6z m208 -27 c6 -21 13 -67
17 -103 4 -36 13 -94 20 -130 34 -164 45 -229 39 -246 -4 -14 -3 -16 4 -5 7
10 11 4 14 -23 4 -32 2 -36 -19 -36 -18 0 -23 6 -23 28 0 15 -7 56 -15 92 -8
36 -28 146 -45 245 -17 99 -33 188 -36 198 -4 12 0 17 14 17 13 0 22 -11 30
-37z m81 -130 c12 -93 26 -189 30 -215 6 -32 5 -49 -3 -52 -6 -2 -3 -5 6 -5 9
-1 20 4 23 9 3 6 3 10 -2 10 -4 0 -9 24 -11 53 -1 28 -9 90 -17 137 -25 149
-30 230 -13 230 11 0 19 -29 32 -117 9 -65 26 -161 37 -213 10 -52 21 -114 24
-137 5 -40 4 -42 -27 -49 -18 -4 -28 -9 -21 -11 6 -2 28 0 47 6 44 12 46 1 6
-22 -16 -10 -30 -22 -30 -28 0 -5 -7 -9 -15 -9 -20 0 -19 10 3 27 16 13 15 14
-5 10 -34 -8 -31 31 3 44 15 5 25 12 22 15 -3 2 -17 0 -32 -5 -21 -9 -26 -8
-26 4 0 8 7 15 15 15 8 0 15 4 15 9 0 5 -9 7 -19 4 -24 -6 -31 17 -61 202 -12
72 -28 158 -35 193 -13 61 -13 62 9 62 20 0 23 -9 45 -167z m149 80 c23 -176
38 -322 41 -390 1 -15 7 -23 19 -23 11 0 13 3 6 8 -9 5 -8 10 2 19 8 9 15 9
19 2 11 -17 -3 -39 -24 -39 -14 0 -19 -6 -18 -21 1 -17 7 -20 29 -17 34 5 37
-8 4 -16 -13 -3 -31 -8 -38 -11 -12 -5 -18 20 -32 122 -9 70 -21 151 -27 178
-12 63 -39 244 -39 262 0 7 11 13 24 13 22 0 24 -5 34 -87z m46 65 c3 -13 10
-68 16 -123 6 -55 15 -136 20 -180 13 -101 12 -125 0 -125 -5 0 -10 7 -10 15
0 8 -5 15 -11 15 -5 0 -8 3 -6 8 5 7 -14 176 -33 292 -6 36 -13 77 -15 93 -4
21 -1 27 14 27 11 0 21 -9 25 -22z m200 -25 c12 -88 20 -403 10 -403 -5 0 -10
8 -10 18 -1 15 -31 250 -50 385 -6 45 -6 47 18 47 23 0 26 -5 32 -47z m69 32
c4 -8 9 -49 12 -92 12 -160 29 -308 35 -313 4 -3 10 -15 14 -27 6 -18 3 -23
-11 -24 -16 0 -16 -1 2 -8 17 -7 17 -8 -8 -15 -33 -8 -49 0 -46 22 3 32 -1 41
-16 36 -8 -4 -15 -1 -15 4 0 6 8 13 18 15 14 4 13 6 -6 12 -15 5 -20 10 -12
15 8 5 9 26 1 81 -5 41 -13 127 -17 192 l-7 117 26 0 c13 0 27 -7 30 -15z m58
-7 c2 -22 2 -22 8 2 3 14 8 -51 11 -145 l6 -170 2 168 c1 103 6 167 12 167 12
0 12 3 14 -272 0 -126 -2 -228 -5 -228 -15 0 -51 179 -69 335 -5 50 -13 107
-16 128 -5 33 -3 37 15 37 15 0 21 -7 22 -22z m-1920 -10 c10 -18 38 -127 84
-325 5 -22 2 -23 -53 -23 l-58 0 -12 68 c-6 37 -26 120 -45 185 l-34 117 53 0
c45 0 55 -4 65 -22z m414 9 c7 -11 48 -254 51 -298 1 -31 12 -92 22 -135 22
-88 36 -209 22 -183 -18 31 -101 342 -96 356 3 8 1 11 -5 8 -6 -4 -8 2 -4 17
3 12 -7 74 -23 136 l-28 114 30 -6 c16 -4 30 -7 31 -9z m100 -92 c22 -34 39
-76 42 -100 2 -22 8 -49 13 -60 5 -11 16 -61 24 -111 9 -49 20 -103 24 -120 6
-19 4 -38 -5 -54 -12 -23 -13 -24 -13 -4 0 12 -9 41 -20 66 -10 24 -30 105
-44 180 -23 124 -42 178 -96 279 -5 9 -6 19 -3 23 7 7 27 -19 78 -99z m244 68
c6 -21 15 -72 21 -113 5 -41 19 -122 30 -180 25 -136 27 -162 14 -167 -7 -2
-21 37 -37 104 -33 136 -65 280 -70 313 -3 14 -3 -13 -2 -60 2 -47 8 -101 14
-120 17 -54 11 -70 -7 -20 -9 25 -25 60 -35 78 -10 17 -13 32 -8 32 5 0 12 -8
15 -17 3 -10 3 18 1 62 -2 44 -7 90 -10 103 -7 20 -4 22 28 22 33 0 37 -3 46
-37z m40 15 c10 -26 40 -183 71 -363 11 -66 23 -132 26 -147 3 -18 1 -28 -6
-28 -6 0 -8 5 -5 10 3 6 2 10 -3 10 -16 0 -52 162 -92 405 -24 147 -23 135
-10 135 6 0 14 -10 19 -22z m190 -25 c6 -27 17 -84 25 -128 18 -106 54 -288
67 -349 9 -39 9 -50 -2 -57 -11 -7 -10 -9 4 -9 9 0 17 -4 17 -10 0 -5 -9 -10
-19 -10 -14 0 -21 9 -26 33 -4 17 -17 79 -30 137 -49 215 -95 425 -95 433 0 4
11 7 24 7 20 0 26 -7 35 -47z m-4905 -255 c-5 -13 -8 -83 -7 -155 1 -108 -1
-133 -13 -133 -19 0 -18 -13 4 -41 20 -25 34 -107 38 -222 1 -37 5 -74 8 -83
3 -8 -1 -29 -10 -47 -16 -30 -16 -32 5 -45 28 -19 27 -37 -4 -74 -14 -17 -23
-38 -21 -47 3 -9 15 -70 26 -135 12 -66 23 -123 25 -127 3 -4 2 -35 -2 -68 -4
-46 -9 -61 -19 -57 -19 7 -44 -21 -44 -50 0 -14 7 -36 16 -50 13 -19 14 -30 6
-48 -7 -16 -7 -27 0 -34 7 -7 5 -17 -5 -33 -8 -13 -18 -49 -22 -79 -5 -48 -35
-211 -40 -217 -1 -2 -42 6 -91 17 -49 11 -101 20 -116 20 -26 0 -27 2 -16 25
6 14 9 26 7 28 -2 1 -17 9 -34 18 -39 22 -92 90 -105 137 -13 47 -13 217 0
242 19 35 42 233 38 328 -3 89 -4 95 -31 116 -25 20 -26 24 -13 36 9 7 16 23
16 37 0 13 5 34 12 46 6 12 21 58 33 102 20 74 24 81 61 101 27 14 50 39 76
85 58 98 164 309 178 354 17 54 29 75 41 75 6 0 7 -9 3 -22z m4473 -486 c-19
-15 -63 -47 -98 -72 -34 -25 -131 -112 -215 -195 -171 -168 -189 -198 -180
-283 l6 -53 -158 7 c-187 8 -271 1 -273 -24 -1 -9 -5 1 -10 23 -13 64 -10 163
5 193 19 37 125 138 279 266 125 104 129 106 195 116 37 5 99 10 137 11 39 1
84 4 100 8 l30 7 -34 7 c-41 9 -34 19 15 24 31 3 35 1 29 -15 -7 -24 16 -35
47 -22 l23 9 -22 7 c-31 9 -29 24 3 24 16 0 23 -4 18 -12 -4 -6 -3 -8 3 -5 6
4 28 9 48 12 21 2 40 7 43 9 2 3 13 1 24 -5 18 -10 17 -12 -15 -37z m-3873
-504 c35 -109 110 -288 147 -350 22 -38 39 -72 36 -74 -6 -7 -71 69 -116 137
-29 44 -45 86 -69 183 -33 128 -42 198 -21 164 5 -10 16 -37 23 -60z m72 -70
c15 -29 34 -64 44 -78 10 -14 43 -73 73 -131 55 -105 75 -167 62 -189 -11 -17
-117 190 -161 312 -20 57 -41 111 -46 121 -5 9 -6 17 -4 17 3 0 18 -24 32 -52z
m5664 -90 c-10 -21 -10 -21 3 -5 22 26 29 20 13 -10 -21 -38 -59 -83 -52 -61
9 30 -12 29 -33 -1 -11 -16 -30 -49 -41 -75 -35 -82 -33 -51 3 49 5 17 17 38
25 48 14 16 -13 17 -549 17 -337 0 -578 4 -599 10 -20 5 -230 14 -469 19 -238
6 -436 13 -439 16 -3 3 172 3 389 0 595 -9 1728 5 1742 20 16 18 21 1 7 -27z
m-2386 -13 c-9 -5 -46 -33 -83 -60 -63 -48 -90 -68 -150 -107 -32 -22 -184
-27 -163 -6 8 8 12 45 12 101 l0 89 201 -4 c140 -2 195 -6 183 -13z m331 -86
c9 -29 63 -33 236 -20 86 7 219 12 295 11 77 -1 370 -1 653 -1 326 1 536 -3
574 -10 71 -12 109 -5 139 27 28 29 38 30 38 4 0 -52 -48 -116 -62 -82 -1 5
-41 6 -88 3 -47 -3 -317 -4 -600 -1 -288 3 -566 2 -630 -4 -145 -12 -590 20
-590 43 0 4 -16 8 -36 9 -53 2 -55 12 -3 13 24 1 34 4 22 6 -12 2 -20 10 -17
17 7 19 62 7 69 -15z m1865 -100 c-20 -6 -426 -11 -940 -13 l-905 -4 893 8
c492 5 899 11 905 14 7 2 28 4 47 4 l35 0 -35 -9z m-160 -78 c0 -14 -23 -28
-65 -40 -22 -6 -57 -22 -78 -37 l-38 -25 2 -72 c2 -49 -4 -87 -16 -120 -18
-48 -16 -81 9 -152 7 -18 6 -18 -4 -2 -10 16 -36 15 -26 -1 2 -4 -25 -8 -62
-10 -36 -2 -117 -13 -181 -26 -63 -13 -121 -22 -127 -19 -7 2 -21 0 -32 -6
-12 -7 -40 -7 -83 0 -110 16 -249 28 -394 34 -372 14 -425 15 -425 4 0 -10
-204 -4 -328 10 -35 4 -83 7 -108 7 -24 -1 -45 2 -47 5 -4 12 -177 37 -177 25
0 -6 -3 -7 -10 0 -6 6 1 37 21 89 24 62 30 89 25 122 -7 56 -49 121 -82 129
l-25 6 23 16 c13 9 28 22 34 30 14 20 -9 19 984 27 481 4 877 9 879 11 9 8
331 3 331 -5z m-622 -582 c-9 -6 -5 -9 14 -9 52 0 126 -22 121 -36 -10 -26
-88 -47 -150 -39 -86 10 -103 15 -103 34 0 13 -2 13 -9 2 -10 -16 -54 -5 -48
12 4 14 57 28 80 21 9 -3 17 -1 17 5 0 6 14 11 30 11 17 0 30 4 30 10 0 5 7 7
16 3 13 -5 13 -7 2 -14z m-6666 -864 c4 -5 8 -54 8 -108 l0 -98 40 23 39 23
-24 12 c-24 13 -44 69 -29 83 14 12 84 -38 95 -68 11 -29 5 -68 -15 -87 -27
-27 -82 -55 -108 -55 -36 0 -78 51 -78 96 0 20 -5 34 -12 34 -9 0 -9 3 -3 8
14 9 17 53 4 68 -7 8 -7 14 0 19 6 3 10 22 9 41 -2 57 36 62 74 9z"/>
<path d="M6723 4256 c4 -10 7 -28 7 -41 0 -26 29 -42 42 -23 4 7 8 23 8 36 0
12 5 22 10 22 6 0 10 -15 10 -34 0 -33 1 -33 53 -40 28 -4 59 -8 67 -8 8 0 48
-6 89 -14 41 -8 75 -13 76 -11 1 1 7 16 13 32 l10 30 1 -39 c1 -35 3 -38 24
-32 12 3 25 6 30 6 4 0 7 13 7 30 0 34 0 33 -125 50 -44 6 -95 13 -112 16 -31
5 -33 3 -33 -26 0 -16 -5 -30 -11 -30 -7 0 -10 13 -7 34 l4 34 -51 6 c-27 4
-65 9 -84 13 -30 5 -33 3 -28 -11z"/>
</g>
</svg>
